<?xml version="1.0" encoding="utf-8" standalone="no"?>
<!DOCTYPE svg PUBLIC "-//W3C//DTD SVG 1.1//EN"
  "http://www.w3.org/Graphics/SVG/1.1/DTD/svg11.dtd">
<svg xmlns:xlink="http://www.w3.org/1999/xlink" width="460.8pt" height="345.6pt" viewBox="0 0 460.8 345.6" xmlns="http://www.w3.org/2000/svg" version="1.1">
 <metadata>
  <rdf:RDF xmlns:dc="http://purl.org/dc/elements/1.1/" xmlns:cc="http://creativecommons.org/ns#" xmlns:rdf="http://www.w3.org/1999/02/22-rdf-syntax-ns#">
   <cc:Work>
    <dc:type rdf:resource="http://purl.org/dc/dcmitype/StillImage"/>
    <dc:date>2023-05-16T14:36:37.453460</dc:date>
    <dc:format>image/svg+xml</dc:format>
    <dc:creator>
     <cc:Agent>
      <dc:title>Matplotlib v3.7.1, https://matplotlib.org/</dc:title>
     </cc:Agent>
    </dc:creator>
   </cc:Work>
  </rdf:RDF>
 </metadata>
 <defs>
  <style type="text/css">*{stroke-linejoin: round; stroke-linecap: butt}</style>
 </defs>
 <g id="figure_1">
  <g id="patch_1">
   <path d="M 0 345.6 
L 460.8 345.6 
L 460.8 0 
L 0 0 
L 0 345.6 
z
" style="fill: none"/>
  </g>
  <g id="axes_1">
   <g id="patch_2">
    <path d="M 48.35 293.56 
L 447.93 293.56 
L 447.93 10.8 
L 48.35 10.8 
L 48.35 293.56 
z
" style="fill: none"/>
   </g>
   <g id="patch_3">
    <path d="M 58.73908 252.788597 
L 97.89792 252.788597 
L 97.89792 120.223724 
L 58.73908 120.223724 
L 58.73908 252.788597 
z
" clip-path="url(#p4aeb18d40a)" style="fill: #176d9c; stroke: #363636; stroke-width: 1.5; stroke-linejoin: miter"/>
   </g>
   <g id="patch_4">
    <path d="M 98.69708 237.407928 
L 137.85592 237.407928 
L 137.85592 225.151826 
L 98.69708 225.151826 
L 98.69708 237.407928 
z
" clip-path="url(#p4aeb18d40a)" style="fill: #c38820; stroke: #363636; stroke-width: 1.5; stroke-linejoin: miter"/>
   </g>
   <g id="patch_5">
    <path d="M 158.63408 258.957914 
L 197.79292 258.957914 
L 197.79292 199.451933 
L 158.63408 199.451933 
L 158.63408 258.957914 
z
" clip-path="url(#p4aeb18d40a)" style="fill: #176d9c; stroke: #363636; stroke-width: 1.5; stroke-linejoin: miter"/>
   </g>
   <g id="patch_6">
    <path d="M 198.59208 236.838065 
L 237.75092 236.838065 
L 237.75092 225.040892 
L 198.59208 225.040892 
L 198.59208 236.838065 
z
" clip-path="url(#p4aeb18d40a)" style="fill: #c38820; stroke: #363636; stroke-width: 1.5; stroke-linejoin: miter"/>
   </g>
   <g id="patch_7">
    <path d="M 258.52908 258.924139 
L 297.68792 258.924139 
L 297.68792 241.050907 
L 258.52908 241.050907 
L 258.52908 258.924139 
z
" clip-path="url(#p4aeb18d40a)" style="fill: #176d9c; stroke: #363636; stroke-width: 1.5; stroke-linejoin: miter"/>
   </g>
   <g id="patch_8">
    <path d="M 298.48708 255.086003 
L 337.64592 255.086003 
L 337.64592 248.445235 
L 298.48708 248.445235 
L 298.48708 255.086003 
z
" clip-path="url(#p4aeb18d40a)" style="fill: #c38820; stroke: #363636; stroke-width: 1.5; stroke-linejoin: miter"/>
   </g>
   <g id="patch_9">
    <path d="M 358.42408 262.211488 
L 397.58292 262.211488 
L 397.58292 249.707391 
L 358.42408 249.707391 
L 358.42408 262.211488 
z
" clip-path="url(#p4aeb18d40a)" style="fill: #176d9c; stroke: #363636; stroke-width: 1.5; stroke-linejoin: miter"/>
   </g>
   <g id="patch_10">
    <path d="M 398.38208 256.47777 
L 437.54092 256.47777 
L 437.54092 250.345503 
L 398.38208 250.345503 
L 398.38208 256.47777 
z
" clip-path="url(#p4aeb18d40a)" style="fill: #c38820; stroke: #363636; stroke-width: 1.5; stroke-linejoin: miter"/>
   </g>
   <g id="patch_11">
    <path d="M 98.2975 286.869107 
L 98.2975 286.869107 
L 98.2975 286.869107 
L 98.2975 286.869107 
z
" clip-path="url(#p4aeb18d40a)" style="fill: #176d9c; stroke: #363636; stroke-width: 0.75; stroke-linejoin: miter"/>
   </g>
   <g id="patch_12">
    <path d="M 98.2975 286.869107 
L 98.2975 286.869107 
L 98.2975 286.869107 
L 98.2975 286.869107 
z
" clip-path="url(#p4aeb18d40a)" style="fill: #c38820; stroke: #363636; stroke-width: 0.75; stroke-linejoin: miter"/>
   </g>
   <g id="matplotlib.axis_1">
    <g id="xtick_1">
     <g id="line2d_1">
      <defs>
       <path id="mba8c64f9cc" d="M 0 0 
L 0 3.5 
" style="stroke: #000000; stroke-width: 0.8"/>
      </defs>
      <g>
       <use xlink:href="#mba8c64f9cc" x="98.2975" y="293.56" style="stroke: #000000; stroke-width: 0.8"/>
      </g>
     </g>
     <g id="text_1">
      <!-- Atoms -->
      <g transform="translate(82.470156 308.158437) scale(0.1 -0.1)">
       <defs>
        <path id="DejaVuSans-41" d="M 2188 4044 
L 1331 1722 
L 3047 1722 
L 2188 4044 
z
M 1831 4666 
L 2547 4666 
L 4325 0 
L 3669 0 
L 3244 1197 
L 1141 1197 
L 716 0 
L 50 0 
L 1831 4666 
z
" transform="scale(0.015625)"/>
        <path id="DejaVuSans-74" d="M 1172 4494 
L 1172 3500 
L 2356 3500 
L 2356 3053 
L 1172 3053 
L 1172 1153 
Q 1172 725 1289 603 
Q 1406 481 1766 481 
L 2356 481 
L 2356 0 
L 1766 0 
Q 1100 0 847 248 
Q 594 497 594 1153 
L 594 3053 
L 172 3053 
L 172 3500 
L 594 3500 
L 594 4494 
L 1172 4494 
z
" transform="scale(0.015625)"/>
        <path id="DejaVuSans-6f" d="M 1959 3097 
Q 1497 3097 1228 2736 
Q 959 2375 959 1747 
Q 959 1119 1226 758 
Q 1494 397 1959 397 
Q 2419 397 2687 759 
Q 2956 1122 2956 1747 
Q 2956 2369 2687 2733 
Q 2419 3097 1959 3097 
z
M 1959 3584 
Q 2709 3584 3137 3096 
Q 3566 2609 3566 1747 
Q 3566 888 3137 398 
Q 2709 -91 1959 -91 
Q 1206 -91 779 398 
Q 353 888 353 1747 
Q 353 2609 779 3096 
Q 1206 3584 1959 3584 
z
" transform="scale(0.015625)"/>
        <path id="DejaVuSans-6d" d="M 3328 2828 
Q 3544 3216 3844 3400 
Q 4144 3584 4550 3584 
Q 5097 3584 5394 3201 
Q 5691 2819 5691 2113 
L 5691 0 
L 5113 0 
L 5113 2094 
Q 5113 2597 4934 2840 
Q 4756 3084 4391 3084 
Q 3944 3084 3684 2787 
Q 3425 2491 3425 1978 
L 3425 0 
L 2847 0 
L 2847 2094 
Q 2847 2600 2669 2842 
Q 2491 3084 2119 3084 
Q 1678 3084 1418 2786 
Q 1159 2488 1159 1978 
L 1159 0 
L 581 0 
L 581 3500 
L 1159 3500 
L 1159 2956 
Q 1356 3278 1631 3431 
Q 1906 3584 2284 3584 
Q 2666 3584 2933 3390 
Q 3200 3197 3328 2828 
z
" transform="scale(0.015625)"/>
        <path id="DejaVuSans-73" d="M 2834 3397 
L 2834 2853 
Q 2591 2978 2328 3040 
Q 2066 3103 1784 3103 
Q 1356 3103 1142 2972 
Q 928 2841 928 2578 
Q 928 2378 1081 2264 
Q 1234 2150 1697 2047 
L 1894 2003 
Q 2506 1872 2764 1633 
Q 3022 1394 3022 966 
Q 3022 478 2636 193 
Q 2250 -91 1575 -91 
Q 1294 -91 989 -36 
Q 684 19 347 128 
L 347 722 
Q 666 556 975 473 
Q 1284 391 1588 391 
Q 1994 391 2212 530 
Q 2431 669 2431 922 
Q 2431 1156 2273 1281 
Q 2116 1406 1581 1522 
L 1381 1569 
Q 847 1681 609 1914 
Q 372 2147 372 2553 
Q 372 3047 722 3315 
Q 1072 3584 1716 3584 
Q 2034 3584 2315 3537 
Q 2597 3491 2834 3397 
z
" transform="scale(0.015625)"/>
       </defs>
       <use xlink:href="#DejaVuSans-41"/>
       <use xlink:href="#DejaVuSans-74" x="66.658203"/>
       <use xlink:href="#DejaVuSans-6f" x="105.867188"/>
       <use xlink:href="#DejaVuSans-6d" x="167.048828"/>
       <use xlink:href="#DejaVuSans-73" x="264.460938"/>
      </g>
     </g>
    </g>
    <g id="xtick_2">
     <g id="line2d_2">
      <g>
       <use xlink:href="#mba8c64f9cc" x="198.1925" y="293.56" style="stroke: #000000; stroke-width: 0.8"/>
      </g>
     </g>
     <g id="text_2">
      <!-- Atoms, Gap -->
      <g transform="translate(169.074531 308.158437) scale(0.1 -0.1)">
       <defs>
        <path id="DejaVuSans-2c" d="M 750 794 
L 1409 794 
L 1409 256 
L 897 -744 
L 494 -744 
L 750 256 
L 750 794 
z
" transform="scale(0.015625)"/>
        <path id="DejaVuSans-20" transform="scale(0.015625)"/>
        <path id="DejaVuSans-47" d="M 3809 666 
L 3809 1919 
L 2778 1919 
L 2778 2438 
L 4434 2438 
L 4434 434 
Q 4069 175 3628 42 
Q 3188 -91 2688 -91 
Q 1594 -91 976 548 
Q 359 1188 359 2328 
Q 359 3472 976 4111 
Q 1594 4750 2688 4750 
Q 3144 4750 3555 4637 
Q 3966 4525 4313 4306 
L 4313 3634 
Q 3963 3931 3569 4081 
Q 3175 4231 2741 4231 
Q 1884 4231 1454 3753 
Q 1025 3275 1025 2328 
Q 1025 1384 1454 906 
Q 1884 428 2741 428 
Q 3075 428 3337 486 
Q 3600 544 3809 666 
z
" transform="scale(0.015625)"/>
        <path id="DejaVuSans-61" d="M 2194 1759 
Q 1497 1759 1228 1600 
Q 959 1441 959 1056 
Q 959 750 1161 570 
Q 1363 391 1709 391 
Q 2188 391 2477 730 
Q 2766 1069 2766 1631 
L 2766 1759 
L 2194 1759 
z
M 3341 1997 
L 3341 0 
L 2766 0 
L 2766 531 
Q 2569 213 2275 61 
Q 1981 -91 1556 -91 
Q 1019 -91 701 211 
Q 384 513 384 1019 
Q 384 1609 779 1909 
Q 1175 2209 1959 2209 
L 2766 2209 
L 2766 2266 
Q 2766 2663 2505 2880 
Q 2244 3097 1772 3097 
Q 1472 3097 1187 3025 
Q 903 2953 641 2809 
L 641 3341 
Q 956 3463 1253 3523 
Q 1550 3584 1831 3584 
Q 2591 3584 2966 3190 
Q 3341 2797 3341 1997 
z
" transform="scale(0.015625)"/>
        <path id="DejaVuSans-70" d="M 1159 525 
L 1159 -1331 
L 581 -1331 
L 581 3500 
L 1159 3500 
L 1159 2969 
Q 1341 3281 1617 3432 
Q 1894 3584 2278 3584 
Q 2916 3584 3314 3078 
Q 3713 2572 3713 1747 
Q 3713 922 3314 415 
Q 2916 -91 2278 -91 
Q 1894 -91 1617 61 
Q 1341 213 1159 525 
z
M 3116 1747 
Q 3116 2381 2855 2742 
Q 2594 3103 2138 3103 
Q 1681 3103 1420 2742 
Q 1159 2381 1159 1747 
Q 1159 1113 1420 752 
Q 1681 391 2138 391 
Q 2594 391 2855 752 
Q 3116 1113 3116 1747 
z
" transform="scale(0.015625)"/>
       </defs>
       <use xlink:href="#DejaVuSans-41"/>
       <use xlink:href="#DejaVuSans-74" x="66.658203"/>
       <use xlink:href="#DejaVuSans-6f" x="105.867188"/>
       <use xlink:href="#DejaVuSans-6d" x="167.048828"/>
       <use xlink:href="#DejaVuSans-73" x="264.460938"/>
       <use xlink:href="#DejaVuSans-2c" x="316.560547"/>
       <use xlink:href="#DejaVuSans-20" x="348.347656"/>
       <use xlink:href="#DejaVuSans-47" x="380.134766"/>
       <use xlink:href="#DejaVuSans-61" x="457.625"/>
       <use xlink:href="#DejaVuSans-70" x="518.904297"/>
      </g>
     </g>
    </g>
    <g id="xtick_3">
     <g id="line2d_3">
      <g>
       <use xlink:href="#mba8c64f9cc" x="298.0875" y="293.56" style="stroke: #000000; stroke-width: 0.8"/>
      </g>
     </g>
     <g id="text_3">
      <!-- Atoms + Ions -->
      <g transform="translate(264.584375 308.158437) scale(0.1 -0.1)">
       <defs>
        <path id="DejaVuSans-2b" d="M 2944 4013 
L 2944 2272 
L 4684 2272 
L 4684 1741 
L 2944 1741 
L 2944 0 
L 2419 0 
L 2419 1741 
L 678 1741 
L 678 2272 
L 2419 2272 
L 2419 4013 
L 2944 4013 
z
" transform="scale(0.015625)"/>
        <path id="DejaVuSans-49" d="M 628 4666 
L 1259 4666 
L 1259 0 
L 628 0 
L 628 4666 
z
" transform="scale(0.015625)"/>
        <path id="DejaVuSans-6e" d="M 3513 2113 
L 3513 0 
L 2938 0 
L 2938 2094 
Q 2938 2591 2744 2837 
Q 2550 3084 2163 3084 
Q 1697 3084 1428 2787 
Q 1159 2491 1159 1978 
L 1159 0 
L 581 0 
L 581 3500 
L 1159 3500 
L 1159 2956 
Q 1366 3272 1645 3428 
Q 1925 3584 2291 3584 
Q 2894 3584 3203 3211 
Q 3513 2838 3513 2113 
z
" transform="scale(0.015625)"/>
       </defs>
       <use xlink:href="#DejaVuSans-41"/>
       <use xlink:href="#DejaVuSans-74" x="66.658203"/>
       <use xlink:href="#DejaVuSans-6f" x="105.867188"/>
       <use xlink:href="#DejaVuSans-6d" x="167.048828"/>
       <use xlink:href="#DejaVuSans-73" x="264.460938"/>
       <use xlink:href="#DejaVuSans-20" x="316.560547"/>
       <use xlink:href="#DejaVuSans-2b" x="348.347656"/>
       <use xlink:href="#DejaVuSans-20" x="432.136719"/>
       <use xlink:href="#DejaVuSans-49" x="463.923828"/>
       <use xlink:href="#DejaVuSans-6f" x="493.416016"/>
       <use xlink:href="#DejaVuSans-6e" x="554.597656"/>
       <use xlink:href="#DejaVuSans-73" x="617.976562"/>
      </g>
     </g>
    </g>
    <g id="xtick_4">
     <g id="line2d_4">
      <g>
       <use xlink:href="#mba8c64f9cc" x="397.9825" y="293.56" style="stroke: #000000; stroke-width: 0.8"/>
      </g>
     </g>
     <g id="text_4">
      <!-- Atoms + Ions, Gap -->
      <g transform="translate(351.18875 308.158437) scale(0.1 -0.1)">
       <use xlink:href="#DejaVuSans-41"/>
       <use xlink:href="#DejaVuSans-74" x="66.658203"/>
       <use xlink:href="#DejaVuSans-6f" x="105.867188"/>
       <use xlink:href="#DejaVuSans-6d" x="167.048828"/>
       <use xlink:href="#DejaVuSans-73" x="264.460938"/>
       <use xlink:href="#DejaVuSans-20" x="316.560547"/>
       <use xlink:href="#DejaVuSans-2b" x="348.347656"/>
       <use xlink:href="#DejaVuSans-20" x="432.136719"/>
       <use xlink:href="#DejaVuSans-49" x="463.923828"/>
       <use xlink:href="#DejaVuSans-6f" x="493.416016"/>
       <use xlink:href="#DejaVuSans-6e" x="554.597656"/>
       <use xlink:href="#DejaVuSans-73" x="617.976562"/>
       <use xlink:href="#DejaVuSans-2c" x="670.076172"/>
       <use xlink:href="#DejaVuSans-20" x="701.863281"/>
       <use xlink:href="#DejaVuSans-47" x="733.650391"/>
       <use xlink:href="#DejaVuSans-61" x="811.140625"/>
       <use xlink:href="#DejaVuSans-70" x="872.419922"/>
      </g>
     </g>
    </g>
    <g id="text_5">
     <!-- Training mode -->
     <g transform="translate(177.149375 329.435) scale(0.2 -0.2)">
      <defs>
       <path id="DejaVuSans-54" d="M -19 4666 
L 3928 4666 
L 3928 4134 
L 2272 4134 
L 2272 0 
L 1638 0 
L 1638 4134 
L -19 4134 
L -19 4666 
z
" transform="scale(0.015625)"/>
       <path id="DejaVuSans-72" d="M 2631 2963 
Q 2534 3019 2420 3045 
Q 2306 3072 2169 3072 
Q 1681 3072 1420 2755 
Q 1159 2438 1159 1844 
L 1159 0 
L 581 0 
L 581 3500 
L 1159 3500 
L 1159 2956 
Q 1341 3275 1631 3429 
Q 1922 3584 2338 3584 
Q 2397 3584 2469 3576 
Q 2541 3569 2628 3553 
L 2631 2963 
z
" transform="scale(0.015625)"/>
       <path id="DejaVuSans-69" d="M 603 3500 
L 1178 3500 
L 1178 0 
L 603 0 
L 603 3500 
z
M 603 4863 
L 1178 4863 
L 1178 4134 
L 603 4134 
L 603 4863 
z
" transform="scale(0.015625)"/>
       <path id="DejaVuSans-67" d="M 2906 1791 
Q 2906 2416 2648 2759 
Q 2391 3103 1925 3103 
Q 1463 3103 1205 2759 
Q 947 2416 947 1791 
Q 947 1169 1205 825 
Q 1463 481 1925 481 
Q 2391 481 2648 825 
Q 2906 1169 2906 1791 
z
M 3481 434 
Q 3481 -459 3084 -895 
Q 2688 -1331 1869 -1331 
Q 1566 -1331 1297 -1286 
Q 1028 -1241 775 -1147 
L 775 -588 
Q 1028 -725 1275 -790 
Q 1522 -856 1778 -856 
Q 2344 -856 2625 -561 
Q 2906 -266 2906 331 
L 2906 616 
Q 2728 306 2450 153 
Q 2172 0 1784 0 
Q 1141 0 747 490 
Q 353 981 353 1791 
Q 353 2603 747 3093 
Q 1141 3584 1784 3584 
Q 2172 3584 2450 3431 
Q 2728 3278 2906 2969 
L 2906 3500 
L 3481 3500 
L 3481 434 
z
" transform="scale(0.015625)"/>
       <path id="DejaVuSans-64" d="M 2906 2969 
L 2906 4863 
L 3481 4863 
L 3481 0 
L 2906 0 
L 2906 525 
Q 2725 213 2448 61 
Q 2172 -91 1784 -91 
Q 1150 -91 751 415 
Q 353 922 353 1747 
Q 353 2572 751 3078 
Q 1150 3584 1784 3584 
Q 2172 3584 2448 3432 
Q 2725 3281 2906 2969 
z
M 947 1747 
Q 947 1113 1208 752 
Q 1469 391 1925 391 
Q 2381 391 2643 752 
Q 2906 1113 2906 1747 
Q 2906 2381 2643 2742 
Q 2381 3103 1925 3103 
Q 1469 3103 1208 2742 
Q 947 2381 947 1747 
z
" transform="scale(0.015625)"/>
       <path id="DejaVuSans-65" d="M 3597 1894 
L 3597 1613 
L 953 1613 
Q 991 1019 1311 708 
Q 1631 397 2203 397 
Q 2534 397 2845 478 
Q 3156 559 3463 722 
L 3463 178 
Q 3153 47 2828 -22 
Q 2503 -91 2169 -91 
Q 1331 -91 842 396 
Q 353 884 353 1716 
Q 353 2575 817 3079 
Q 1281 3584 2069 3584 
Q 2775 3584 3186 3129 
Q 3597 2675 3597 1894 
z
M 3022 2063 
Q 3016 2534 2758 2815 
Q 2500 3097 2075 3097 
Q 1594 3097 1305 2825 
Q 1016 2553 972 2059 
L 3022 2063 
z
" transform="scale(0.015625)"/>
      </defs>
      <use xlink:href="#DejaVuSans-54"/>
      <use xlink:href="#DejaVuSans-72" x="46.333984"/>
      <use xlink:href="#DejaVuSans-61" x="87.447266"/>
      <use xlink:href="#DejaVuSans-69" x="148.726562"/>
      <use xlink:href="#DejaVuSans-6e" x="176.509766"/>
      <use xlink:href="#DejaVuSans-69" x="239.888672"/>
      <use xlink:href="#DejaVuSans-6e" x="267.671875"/>
      <use xlink:href="#DejaVuSans-67" x="331.050781"/>
      <use xlink:href="#DejaVuSans-20" x="394.527344"/>
      <use xlink:href="#DejaVuSans-6d" x="426.314453"/>
      <use xlink:href="#DejaVuSans-6f" x="523.726562"/>
      <use xlink:href="#DejaVuSans-64" x="584.908203"/>
      <use xlink:href="#DejaVuSans-65" x="648.384766"/>
     </g>
    </g>
   </g>
   <g id="matplotlib.axis_2">
    <g id="ytick_1">
     <g id="line2d_5">
      <defs>
       <path id="m0a8064c296" d="M 0 0 
L -3.5 0 
" style="stroke: #000000; stroke-width: 0.8"/>
      </defs>
      <g>
       <use xlink:href="#m0a8064c296" x="48.35" y="286.869107" style="stroke: #000000; stroke-width: 0.8"/>
      </g>
     </g>
     <g id="text_6">
      <!-- 0 -->
      <g transform="translate(34.9875 290.668325) scale(0.1 -0.1)">
       <defs>
        <path id="DejaVuSans-30" d="M 2034 4250 
Q 1547 4250 1301 3770 
Q 1056 3291 1056 2328 
Q 1056 1369 1301 889 
Q 1547 409 2034 409 
Q 2525 409 2770 889 
Q 3016 1369 3016 2328 
Q 3016 3291 2770 3770 
Q 2525 4250 2034 4250 
z
M 2034 4750 
Q 2819 4750 3233 4129 
Q 3647 3509 3647 2328 
Q 3647 1150 3233 529 
Q 2819 -91 2034 -91 
Q 1250 -91 836 529 
Q 422 1150 422 2328 
Q 422 3509 836 4129 
Q 1250 4750 2034 4750 
z
" transform="scale(0.015625)"/>
       </defs>
       <use xlink:href="#DejaVuSans-30"/>
      </g>
     </g>
    </g>
    <g id="ytick_2">
     <g id="line2d_6">
      <g>
       <use xlink:href="#m0a8064c296" x="48.35" y="226.770991" style="stroke: #000000; stroke-width: 0.8"/>
      </g>
     </g>
     <g id="text_7">
      <!-- 2 -->
      <g transform="translate(34.9875 230.57021) scale(0.1 -0.1)">
       <defs>
        <path id="DejaVuSans-32" d="M 1228 531 
L 3431 531 
L 3431 0 
L 469 0 
L 469 531 
Q 828 903 1448 1529 
Q 2069 2156 2228 2338 
Q 2531 2678 2651 2914 
Q 2772 3150 2772 3378 
Q 2772 3750 2511 3984 
Q 2250 4219 1831 4219 
Q 1534 4219 1204 4116 
Q 875 4013 500 3803 
L 500 4441 
Q 881 4594 1212 4672 
Q 1544 4750 1819 4750 
Q 2544 4750 2975 4387 
Q 3406 4025 3406 3419 
Q 3406 3131 3298 2873 
Q 3191 2616 2906 2266 
Q 2828 2175 2409 1742 
Q 1991 1309 1228 531 
z
" transform="scale(0.015625)"/>
       </defs>
       <use xlink:href="#DejaVuSans-32"/>
      </g>
     </g>
    </g>
    <g id="ytick_3">
     <g id="line2d_7">
      <g>
       <use xlink:href="#m0a8064c296" x="48.35" y="166.672875" style="stroke: #000000; stroke-width: 0.8"/>
      </g>
     </g>
     <g id="text_8">
      <!-- 4 -->
      <g transform="translate(34.9875 170.472094) scale(0.1 -0.1)">
       <defs>
        <path id="DejaVuSans-34" d="M 2419 4116 
L 825 1625 
L 2419 1625 
L 2419 4116 
z
M 2253 4666 
L 3047 4666 
L 3047 1625 
L 3713 1625 
L 3713 1100 
L 3047 1100 
L 3047 0 
L 2419 0 
L 2419 1100 
L 313 1100 
L 313 1709 
L 2253 4666 
z
" transform="scale(0.015625)"/>
       </defs>
       <use xlink:href="#DejaVuSans-34"/>
      </g>
     </g>
    </g>
    <g id="ytick_4">
     <g id="line2d_8">
      <g>
       <use xlink:href="#m0a8064c296" x="48.35" y="106.574759" style="stroke: #000000; stroke-width: 0.8"/>
      </g>
     </g>
     <g id="text_9">
      <!-- 6 -->
      <g transform="translate(34.9875 110.373978) scale(0.1 -0.1)">
       <defs>
        <path id="DejaVuSans-36" d="M 2113 2584 
Q 1688 2584 1439 2293 
Q 1191 2003 1191 1497 
Q 1191 994 1439 701 
Q 1688 409 2113 409 
Q 2538 409 2786 701 
Q 3034 994 3034 1497 
Q 3034 2003 2786 2293 
Q 2538 2584 2113 2584 
z
M 3366 4563 
L 3366 3988 
Q 3128 4100 2886 4159 
Q 2644 4219 2406 4219 
Q 1781 4219 1451 3797 
Q 1122 3375 1075 2522 
Q 1259 2794 1537 2939 
Q 1816 3084 2150 3084 
Q 2853 3084 3261 2657 
Q 3669 2231 3669 1497 
Q 3669 778 3244 343 
Q 2819 -91 2113 -91 
Q 1303 -91 875 529 
Q 447 1150 447 2328 
Q 447 3434 972 4092 
Q 1497 4750 2381 4750 
Q 2619 4750 2861 4703 
Q 3103 4656 3366 4563 
z
" transform="scale(0.015625)"/>
       </defs>
       <use xlink:href="#DejaVuSans-36"/>
      </g>
     </g>
    </g>
    <g id="ytick_5">
     <g id="line2d_9">
      <g>
       <use xlink:href="#m0a8064c296" x="48.35" y="46.476643" style="stroke: #000000; stroke-width: 0.8"/>
      </g>
     </g>
     <g id="text_10">
      <!-- 8 -->
      <g transform="translate(34.9875 50.275862) scale(0.1 -0.1)">
       <defs>
        <path id="DejaVuSans-38" d="M 2034 2216 
Q 1584 2216 1326 1975 
Q 1069 1734 1069 1313 
Q 1069 891 1326 650 
Q 1584 409 2034 409 
Q 2484 409 2743 651 
Q 3003 894 3003 1313 
Q 3003 1734 2745 1975 
Q 2488 2216 2034 2216 
z
M 1403 2484 
Q 997 2584 770 2862 
Q 544 3141 544 3541 
Q 544 4100 942 4425 
Q 1341 4750 2034 4750 
Q 2731 4750 3128 4425 
Q 3525 4100 3525 3541 
Q 3525 3141 3298 2862 
Q 3072 2584 2669 2484 
Q 3125 2378 3379 2068 
Q 3634 1759 3634 1313 
Q 3634 634 3220 271 
Q 2806 -91 2034 -91 
Q 1263 -91 848 271 
Q 434 634 434 1313 
Q 434 1759 690 2068 
Q 947 2378 1403 2484 
z
M 1172 3481 
Q 1172 3119 1398 2916 
Q 1625 2713 2034 2713 
Q 2441 2713 2670 2916 
Q 2900 3119 2900 3481 
Q 2900 3844 2670 4047 
Q 2441 4250 2034 4250 
Q 1625 4250 1398 4047 
Q 1172 3844 1172 3481 
z
" transform="scale(0.015625)"/>
       </defs>
       <use xlink:href="#DejaVuSans-38"/>
      </g>
     </g>
    </g>
    <g id="text_11">
     <!-- RMSE -->
     <g transform="translate(26.828125 180.42375) rotate(-90) scale(0.2 -0.2)">
      <defs>
       <path id="DejaVuSans-52" d="M 2841 2188 
Q 3044 2119 3236 1894 
Q 3428 1669 3622 1275 
L 4263 0 
L 3584 0 
L 2988 1197 
Q 2756 1666 2539 1819 
Q 2322 1972 1947 1972 
L 1259 1972 
L 1259 0 
L 628 0 
L 628 4666 
L 2053 4666 
Q 2853 4666 3247 4331 
Q 3641 3997 3641 3322 
Q 3641 2881 3436 2590 
Q 3231 2300 2841 2188 
z
M 1259 4147 
L 1259 2491 
L 2053 2491 
Q 2509 2491 2742 2702 
Q 2975 2913 2975 3322 
Q 2975 3731 2742 3939 
Q 2509 4147 2053 4147 
L 1259 4147 
z
" transform="scale(0.015625)"/>
       <path id="DejaVuSans-4d" d="M 628 4666 
L 1569 4666 
L 2759 1491 
L 3956 4666 
L 4897 4666 
L 4897 0 
L 4281 0 
L 4281 4097 
L 3078 897 
L 2444 897 
L 1241 4097 
L 1241 0 
L 628 0 
L 628 4666 
z
" transform="scale(0.015625)"/>
       <path id="DejaVuSans-53" d="M 3425 4513 
L 3425 3897 
Q 3066 4069 2747 4153 
Q 2428 4238 2131 4238 
Q 1616 4238 1336 4038 
Q 1056 3838 1056 3469 
Q 1056 3159 1242 3001 
Q 1428 2844 1947 2747 
L 2328 2669 
Q 3034 2534 3370 2195 
Q 3706 1856 3706 1288 
Q 3706 609 3251 259 
Q 2797 -91 1919 -91 
Q 1588 -91 1214 -16 
Q 841 59 441 206 
L 441 856 
Q 825 641 1194 531 
Q 1563 422 1919 422 
Q 2459 422 2753 634 
Q 3047 847 3047 1241 
Q 3047 1584 2836 1778 
Q 2625 1972 2144 2069 
L 1759 2144 
Q 1053 2284 737 2584 
Q 422 2884 422 3419 
Q 422 4038 858 4394 
Q 1294 4750 2059 4750 
Q 2388 4750 2728 4690 
Q 3069 4631 3425 4513 
z
" transform="scale(0.015625)"/>
       <path id="DejaVuSans-45" d="M 628 4666 
L 3578 4666 
L 3578 4134 
L 1259 4134 
L 1259 2753 
L 3481 2753 
L 3481 2222 
L 1259 2222 
L 1259 531 
L 3634 531 
L 3634 0 
L 628 0 
L 628 4666 
z
" transform="scale(0.015625)"/>
      </defs>
      <use xlink:href="#DejaVuSans-52"/>
      <use xlink:href="#DejaVuSans-4d" x="69.482422"/>
      <use xlink:href="#DejaVuSans-53" x="155.761719"/>
      <use xlink:href="#DejaVuSans-45" x="219.238281"/>
     </g>
    </g>
   </g>
   <g id="line2d_10">
    <path d="M 78.3185 252.788597 
L 78.3185 270.775903 
" clip-path="url(#p4aeb18d40a)" style="fill: none; stroke: #363636; stroke-width: 1.5; stroke-linecap: square"/>
   </g>
   <g id="line2d_11">
    <path d="M 78.3185 120.223724 
L 78.3185 23.652727 
" clip-path="url(#p4aeb18d40a)" style="fill: none; stroke: #363636; stroke-width: 1.5; stroke-linecap: square"/>
   </g>
   <g id="line2d_12">
    <path d="M 68.52879 270.775903 
L 88.10821 270.775903 
" clip-path="url(#p4aeb18d40a)" style="fill: none; stroke: #363636; stroke-width: 1.5; stroke-linecap: square"/>
   </g>
   <g id="line2d_13">
    <path d="M 68.52879 23.652727 
L 88.10821 23.652727 
" clip-path="url(#p4aeb18d40a)" style="fill: none; stroke: #363636; stroke-width: 1.5; stroke-linecap: square"/>
   </g>
   <g id="line2d_14"/>
   <g id="line2d_15">
    <path d="M 118.2765 237.407928 
L 118.2765 255.034988 
" clip-path="url(#p4aeb18d40a)" style="fill: none; stroke: #363636; stroke-width: 1.5; stroke-linecap: square"/>
   </g>
   <g id="line2d_16">
    <path d="M 118.2765 225.151826 
L 118.2765 207.27457 
" clip-path="url(#p4aeb18d40a)" style="fill: none; stroke: #363636; stroke-width: 1.5; stroke-linecap: square"/>
   </g>
   <g id="line2d_17">
    <path d="M 108.48679 255.034988 
L 128.06621 255.034988 
" clip-path="url(#p4aeb18d40a)" style="fill: none; stroke: #363636; stroke-width: 1.5; stroke-linecap: square"/>
   </g>
   <g id="line2d_18">
    <path d="M 108.48679 207.27457 
L 128.06621 207.27457 
" clip-path="url(#p4aeb18d40a)" style="fill: none; stroke: #363636; stroke-width: 1.5; stroke-linecap: square"/>
   </g>
   <g id="line2d_19">
    <defs>
     <path id="m7395af4362" d="M 0 3.535534 
L 2.12132 0 
L 0 -3.535534 
L -2.12132 0 
z
" style="stroke: #363636; stroke-linejoin: miter"/>
    </defs>
    <g clip-path="url(#p4aeb18d40a)">
     <use xlink:href="#m7395af4362" x="118.2765" y="206.316387" style="fill: #363636; stroke: #363636; stroke-linejoin: miter"/>
    </g>
   </g>
   <g id="line2d_20">
    <path d="M 178.2135 258.957914 
L 178.2135 275.990704 
" clip-path="url(#p4aeb18d40a)" style="fill: none; stroke: #363636; stroke-width: 1.5; stroke-linecap: square"/>
   </g>
   <g id="line2d_21">
    <path d="M 178.2135 199.451933 
L 178.2135 147.302727 
" clip-path="url(#p4aeb18d40a)" style="fill: none; stroke: #363636; stroke-width: 1.5; stroke-linecap: square"/>
   </g>
   <g id="line2d_22">
    <path d="M 168.42379 275.990704 
L 188.00321 275.990704 
" clip-path="url(#p4aeb18d40a)" style="fill: none; stroke: #363636; stroke-width: 1.5; stroke-linecap: square"/>
   </g>
   <g id="line2d_23">
    <path d="M 168.42379 147.302727 
L 188.00321 147.302727 
" clip-path="url(#p4aeb18d40a)" style="fill: none; stroke: #363636; stroke-width: 1.5; stroke-linecap: square"/>
   </g>
   <g id="line2d_24"/>
   <g id="line2d_25">
    <path d="M 218.1715 236.838065 
L 218.1715 253.332828 
" clip-path="url(#p4aeb18d40a)" style="fill: none; stroke: #363636; stroke-width: 1.5; stroke-linecap: square"/>
   </g>
   <g id="line2d_26">
    <path d="M 218.1715 225.040892 
L 218.1715 207.814172 
" clip-path="url(#p4aeb18d40a)" style="fill: none; stroke: #363636; stroke-width: 1.5; stroke-linecap: square"/>
   </g>
   <g id="line2d_27">
    <path d="M 208.38179 253.332828 
L 227.96121 253.332828 
" clip-path="url(#p4aeb18d40a)" style="fill: none; stroke: #363636; stroke-width: 1.5; stroke-linecap: square"/>
   </g>
   <g id="line2d_28">
    <path d="M 208.38179 207.814172 
L 227.96121 207.814172 
" clip-path="url(#p4aeb18d40a)" style="fill: none; stroke: #363636; stroke-width: 1.5; stroke-linecap: square"/>
   </g>
   <g id="line2d_29">
    <g clip-path="url(#p4aeb18d40a)">
     <use xlink:href="#m7395af4362" x="218.1715" y="206.96978" style="fill: #363636; stroke: #363636; stroke-linejoin: miter"/>
    </g>
   </g>
   <g id="line2d_30">
    <path d="M 278.1085 258.924139 
L 278.1085 278.046445 
" clip-path="url(#p4aeb18d40a)" style="fill: none; stroke: #363636; stroke-width: 1.5; stroke-linecap: square"/>
   </g>
   <g id="line2d_31">
    <path d="M 278.1085 241.050907 
L 278.1085 214.882183 
" clip-path="url(#p4aeb18d40a)" style="fill: none; stroke: #363636; stroke-width: 1.5; stroke-linecap: square"/>
   </g>
   <g id="line2d_32">
    <path d="M 268.31879 278.046445 
L 287.89821 278.046445 
" clip-path="url(#p4aeb18d40a)" style="fill: none; stroke: #363636; stroke-width: 1.5; stroke-linecap: square"/>
   </g>
   <g id="line2d_33">
    <path d="M 268.31879 214.882183 
L 287.89821 214.882183 
" clip-path="url(#p4aeb18d40a)" style="fill: none; stroke: #363636; stroke-width: 1.5; stroke-linecap: square"/>
   </g>
   <g id="line2d_34">
    <g clip-path="url(#p4aeb18d40a)">
     <use xlink:href="#m7395af4362" x="278.1085" y="213.299882" style="fill: #363636; stroke: #363636; stroke-linejoin: miter"/>
    </g>
   </g>
   <g id="line2d_35">
    <path d="M 318.0665 255.086003 
L 318.0665 264.927502 
" clip-path="url(#p4aeb18d40a)" style="fill: none; stroke: #363636; stroke-width: 1.5; stroke-linecap: square"/>
   </g>
   <g id="line2d_36">
    <path d="M 318.0665 248.445235 
L 318.0665 239.084766 
" clip-path="url(#p4aeb18d40a)" style="fill: none; stroke: #363636; stroke-width: 1.5; stroke-linecap: square"/>
   </g>
   <g id="line2d_37">
    <path d="M 308.27679 264.927502 
L 327.85621 264.927502 
" clip-path="url(#p4aeb18d40a)" style="fill: none; stroke: #363636; stroke-width: 1.5; stroke-linecap: square"/>
   </g>
   <g id="line2d_38">
    <path d="M 308.27679 239.084766 
L 327.85621 239.084766 
" clip-path="url(#p4aeb18d40a)" style="fill: none; stroke: #363636; stroke-width: 1.5; stroke-linecap: square"/>
   </g>
   <g id="line2d_39">
    <g clip-path="url(#p4aeb18d40a)">
     <use xlink:href="#m7395af4362" x="318.0665" y="265.43066" style="fill: #363636; stroke: #363636; stroke-linejoin: miter"/>
     <use xlink:href="#m7395af4362" x="318.0665" y="265.763465" style="fill: #363636; stroke: #363636; stroke-linejoin: miter"/>
     <use xlink:href="#m7395af4362" x="318.0665" y="265.393645" style="fill: #363636; stroke: #363636; stroke-linejoin: miter"/>
     <use xlink:href="#m7395af4362" x="318.0665" y="265.72612" style="fill: #363636; stroke: #363636; stroke-linejoin: miter"/>
     <use xlink:href="#m7395af4362" x="318.0665" y="267.111609" style="fill: #363636; stroke: #363636; stroke-linejoin: miter"/>
     <use xlink:href="#m7395af4362" x="318.0665" y="269.620678" style="fill: #363636; stroke: #363636; stroke-linejoin: miter"/>
     <use xlink:href="#m7395af4362" x="318.0665" y="266.365399" style="fill: #363636; stroke: #363636; stroke-linejoin: miter"/>
     <use xlink:href="#m7395af4362" x="318.0665" y="266.732734" style="fill: #363636; stroke: #363636; stroke-linejoin: miter"/>
     <use xlink:href="#m7395af4362" x="318.0665" y="237.871861" style="fill: #363636; stroke: #363636; stroke-linejoin: miter"/>
     <use xlink:href="#m7395af4362" x="318.0665" y="236.707255" style="fill: #363636; stroke: #363636; stroke-linejoin: miter"/>
     <use xlink:href="#m7395af4362" x="318.0665" y="237.773972" style="fill: #363636; stroke: #363636; stroke-linejoin: miter"/>
    </g>
   </g>
   <g id="line2d_40">
    <path d="M 378.0035 262.211488 
L 378.0035 280.707273 
" clip-path="url(#p4aeb18d40a)" style="fill: none; stroke: #363636; stroke-width: 1.5; stroke-linecap: square"/>
   </g>
   <g id="line2d_41">
    <path d="M 378.0035 249.707391 
L 378.0035 231.57719 
" clip-path="url(#p4aeb18d40a)" style="fill: none; stroke: #363636; stroke-width: 1.5; stroke-linecap: square"/>
   </g>
   <g id="line2d_42">
    <path d="M 368.21379 280.707273 
L 387.79321 280.707273 
" clip-path="url(#p4aeb18d40a)" style="fill: none; stroke: #363636; stroke-width: 1.5; stroke-linecap: square"/>
   </g>
   <g id="line2d_43">
    <path d="M 368.21379 231.57719 
L 387.79321 231.57719 
" clip-path="url(#p4aeb18d40a)" style="fill: none; stroke: #363636; stroke-width: 1.5; stroke-linecap: square"/>
   </g>
   <g id="line2d_44">
    <g clip-path="url(#p4aeb18d40a)">
     <use xlink:href="#m7395af4362" x="378.0035" y="230.014452" style="fill: #363636; stroke: #363636; stroke-linejoin: miter"/>
     <use xlink:href="#m7395af4362" x="378.0035" y="230.284551" style="fill: #363636; stroke: #363636; stroke-linejoin: miter"/>
     <use xlink:href="#m7395af4362" x="378.0035" y="227.278568" style="fill: #363636; stroke: #363636; stroke-linejoin: miter"/>
    </g>
   </g>
   <g id="line2d_45">
    <path d="M 417.9615 256.47777 
L 417.9615 265.584227 
" clip-path="url(#p4aeb18d40a)" style="fill: none; stroke: #363636; stroke-width: 1.5; stroke-linecap: square"/>
   </g>
   <g id="line2d_46">
    <path d="M 417.9615 250.345503 
L 417.9615 241.712578 
" clip-path="url(#p4aeb18d40a)" style="fill: none; stroke: #363636; stroke-width: 1.5; stroke-linecap: square"/>
   </g>
   <g id="line2d_47">
    <path d="M 408.17179 265.584227 
L 427.75121 265.584227 
" clip-path="url(#p4aeb18d40a)" style="fill: none; stroke: #363636; stroke-width: 1.5; stroke-linecap: square"/>
   </g>
   <g id="line2d_48">
    <path d="M 408.17179 241.712578 
L 427.75121 241.712578 
" clip-path="url(#p4aeb18d40a)" style="fill: none; stroke: #363636; stroke-width: 1.5; stroke-linecap: square"/>
   </g>
   <g id="line2d_49">
    <g clip-path="url(#p4aeb18d40a)">
     <use xlink:href="#m7395af4362" x="417.9615" y="268.468886" style="fill: #363636; stroke: #363636; stroke-linejoin: miter"/>
     <use xlink:href="#m7395af4362" x="417.9615" y="267.111794" style="fill: #363636; stroke: #363636; stroke-linejoin: miter"/>
     <use xlink:href="#m7395af4362" x="417.9615" y="266.727324" style="fill: #363636; stroke: #363636; stroke-linejoin: miter"/>
     <use xlink:href="#m7395af4362" x="417.9615" y="267.20436" style="fill: #363636; stroke: #363636; stroke-linejoin: miter"/>
     <use xlink:href="#m7395af4362" x="417.9615" y="266.618631" style="fill: #363636; stroke: #363636; stroke-linejoin: miter"/>
     <use xlink:href="#m7395af4362" x="417.9615" y="266.167138" style="fill: #363636; stroke: #363636; stroke-linejoin: miter"/>
     <use xlink:href="#m7395af4362" x="417.9615" y="268.761956" style="fill: #363636; stroke: #363636; stroke-linejoin: miter"/>
     <use xlink:href="#m7395af4362" x="417.9615" y="267.864943" style="fill: #363636; stroke: #363636; stroke-linejoin: miter"/>
     <use xlink:href="#m7395af4362" x="417.9615" y="266.238525" style="fill: #363636; stroke: #363636; stroke-linejoin: miter"/>
     <use xlink:href="#m7395af4362" x="417.9615" y="237.462429" style="fill: #363636; stroke: #363636; stroke-linejoin: miter"/>
     <use xlink:href="#m7395af4362" x="417.9615" y="239.919044" style="fill: #363636; stroke: #363636; stroke-linejoin: miter"/>
    </g>
   </g>
   <g id="line2d_50">
    <path d="M 58.73908 166.703113 
L 97.89792 166.703113 
" clip-path="url(#p4aeb18d40a)" style="fill: none; stroke: #363636; stroke-width: 1.5; stroke-linecap: square"/>
   </g>
   <g id="line2d_51">
    <path d="M 98.69708 231.437029 
L 137.85592 231.437029 
" clip-path="url(#p4aeb18d40a)" style="fill: none; stroke: #363636; stroke-width: 1.5; stroke-linecap: square"/>
   </g>
   <g id="line2d_52">
    <path d="M 158.63408 222.00869 
L 197.79292 222.00869 
" clip-path="url(#p4aeb18d40a)" style="fill: none; stroke: #363636; stroke-width: 1.5; stroke-linecap: square"/>
   </g>
   <g id="line2d_53">
    <path d="M 198.59208 231.140933 
L 237.75092 231.140933 
" clip-path="url(#p4aeb18d40a)" style="fill: none; stroke: #363636; stroke-width: 1.5; stroke-linecap: square"/>
   </g>
   <g id="line2d_54">
    <path d="M 258.52908 249.290096 
L 297.68792 249.290096 
" clip-path="url(#p4aeb18d40a)" style="fill: none; stroke: #363636; stroke-width: 1.5; stroke-linecap: square"/>
   </g>
   <g id="line2d_55">
    <path d="M 298.48708 251.588303 
L 337.64592 251.588303 
" clip-path="url(#p4aeb18d40a)" style="fill: none; stroke: #363636; stroke-width: 1.5; stroke-linecap: square"/>
   </g>
   <g id="line2d_56">
    <path d="M 358.42408 256.144496 
L 397.58292 256.144496 
" clip-path="url(#p4aeb18d40a)" style="fill: none; stroke: #363636; stroke-width: 1.5; stroke-linecap: square"/>
   </g>
   <g id="line2d_57">
    <path d="M 398.38208 253.269682 
L 437.54092 253.269682 
" clip-path="url(#p4aeb18d40a)" style="fill: none; stroke: #363636; stroke-width: 1.5; stroke-linecap: square"/>
   </g>
   <g id="patch_13">
    <path d="M 48.35 293.56 
L 48.35 10.8 
" style="fill: none; stroke: #000000; stroke-width: 0.8; stroke-linejoin: miter; stroke-linecap: square"/>
   </g>
   <g id="patch_14">
    <path d="M 447.93 293.56 
L 447.93 10.8 
" style="fill: none; stroke: #000000; stroke-width: 0.8; stroke-linejoin: miter; stroke-linecap: square"/>
   </g>
   <g id="patch_15">
    <path d="M 48.35 293.56 
L 447.93 293.56 
" style="fill: none; stroke: #000000; stroke-width: 0.8; stroke-linejoin: miter; stroke-linecap: square"/>
   </g>
   <g id="patch_16">
    <path d="M 48.35 10.8 
L 447.93 10.8 
" style="fill: none; stroke: #000000; stroke-width: 0.8; stroke-linejoin: miter; stroke-linecap: square"/>
   </g>
   <g id="legend_1">
    <g id="patch_17">
     <path d="M 337.328438 62.834375 
L 440.93 62.834375 
Q 442.93 62.834375 442.93 60.834375 
L 442.93 17.8 
Q 442.93 15.8 440.93 15.8 
L 337.328438 15.8 
Q 335.328438 15.8 335.328438 17.8 
L 335.328438 60.834375 
Q 335.328438 62.834375 337.328438 62.834375 
z
" style="fill: #ffffff; opacity: 0.8; stroke: #cccccc; stroke-linejoin: miter"/>
    </g>
    <g id="text_12">
     <!-- Test set -->
     <g transform="translate(370.053438 27.398438) scale(0.1 -0.1)">
      <use xlink:href="#DejaVuSans-54"/>
      <use xlink:href="#DejaVuSans-65" x="44.083984"/>
      <use xlink:href="#DejaVuSans-73" x="105.607422"/>
      <use xlink:href="#DejaVuSans-74" x="157.707031"/>
      <use xlink:href="#DejaVuSans-20" x="196.916016"/>
      <use xlink:href="#DejaVuSans-73" x="228.703125"/>
      <use xlink:href="#DejaVuSans-65" x="280.802734"/>
      <use xlink:href="#DejaVuSans-74" x="342.326172"/>
     </g>
    </g>
    <g id="patch_18">
     <path d="M 339.328438 42.076563 
L 359.328438 42.076563 
L 359.328438 35.076563 
L 339.328438 35.076563 
z
" style="fill: #176d9c; stroke: #363636; stroke-width: 0.75; stroke-linejoin: miter"/>
    </g>
    <g id="text_13">
     <!-- Test -->
     <g transform="translate(367.328438 42.076563) scale(0.1 -0.1)">
      <use xlink:href="#DejaVuSans-54"/>
      <use xlink:href="#DejaVuSans-65" x="44.083984"/>
      <use xlink:href="#DejaVuSans-73" x="105.607422"/>
      <use xlink:href="#DejaVuSans-74" x="157.707031"/>
     </g>
    </g>
    <g id="patch_19">
     <path d="M 339.328438 56.754688 
L 359.328438 56.754688 
L 359.328438 49.754688 
L 339.328438 49.754688 
z
" style="fill: #c38820; stroke: #363636; stroke-width: 0.75; stroke-linejoin: miter"/>
    </g>
    <g id="text_14">
     <!-- New Elements -->
     <g transform="translate(367.328438 56.754688) scale(0.1 -0.1)">
      <defs>
       <path id="DejaVuSans-4e" d="M 628 4666 
L 1478 4666 
L 3547 763 
L 3547 4666 
L 4159 4666 
L 4159 0 
L 3309 0 
L 1241 3903 
L 1241 0 
L 628 0 
L 628 4666 
z
" transform="scale(0.015625)"/>
       <path id="DejaVuSans-77" d="M 269 3500 
L 844 3500 
L 1563 769 
L 2278 3500 
L 2956 3500 
L 3675 769 
L 4391 3500 
L 4966 3500 
L 4050 0 
L 3372 0 
L 2619 2869 
L 1863 0 
L 1184 0 
L 269 3500 
z
" transform="scale(0.015625)"/>
       <path id="DejaVuSans-6c" d="M 603 4863 
L 1178 4863 
L 1178 0 
L 603 0 
L 603 4863 
z
" transform="scale(0.015625)"/>
      </defs>
      <use xlink:href="#DejaVuSans-4e"/>
      <use xlink:href="#DejaVuSans-65" x="74.804688"/>
      <use xlink:href="#DejaVuSans-77" x="136.328125"/>
      <use xlink:href="#DejaVuSans-20" x="218.115234"/>
      <use xlink:href="#DejaVuSans-45" x="249.902344"/>
      <use xlink:href="#DejaVuSans-6c" x="313.085938"/>
      <use xlink:href="#DejaVuSans-65" x="340.869141"/>
      <use xlink:href="#DejaVuSans-6d" x="402.392578"/>
      <use xlink:href="#DejaVuSans-65" x="499.804688"/>
      <use xlink:href="#DejaVuSans-6e" x="561.328125"/>
      <use xlink:href="#DejaVuSans-74" x="624.707031"/>
      <use xlink:href="#DejaVuSans-73" x="663.916016"/>
     </g>
    </g>
   </g>
  </g>
 </g>
 <defs>
  <clipPath id="p4aeb18d40a">
   <rect x="48.35" y="10.8" width="399.58" height="282.76"/>
  </clipPath>
 </defs>
</svg>
